name C:\Users\tom_v\MusculoskeletalSpecialization\ResultsSprinting\Case_4\motion.mot
datacolumns 32
datarows 13
range 0.13977813 0.20687163
endheader 
time	pelvis_tilt	pelvis_list	pelvis_rotation	pelvis_tx	pelvis_ty	pelvis_tz	hip_flexion_r	hip_adduction_r	hip_rotation_r	knee_angle_r	ankle_angle_r	subtalar_angle_r	mtp_angle_r	hip_flexion_l	hip_adduction_l	hip_rotation_l	knee_angle_l	ankle_angle_l	subtalar_angle_l	mtp_angle_l	lumbar_extension	lumbar_bending	lumbar_rotation	arm_flex_r	arm_add_r	arm_rot_r	elbow_flex_r	arm_flex_l	arm_add_l	arm_rot_l	elbow_flex_l	
          0.13977813	        -15.70925229	          1.24211248	          1.82447157	          0.45467558	          0.82331948	          0.00173434	         21.05739807	          2.57251798	          4.26886261	        -36.25551578	         19.37886076	          2.09138153	         16.59184422	         49.20531307	          1.76324987	         -4.57251608	        -51.16174665	         26.56109689	          3.13194706	          1.15961134	         -9.40537379	         -1.11450070	          2.13894443	         -4.49718020	        -38.16783052	         19.15149158	         80.13148602	        -18.23990827	        -19.01847575	         -6.95353369	         78.38212899	
          0.14536925	        -15.73896916	          1.29836955	          1.82034094	          0.47343248	          0.82509568	          0.00172577	         19.42357186	          2.29580507	          3.90497252	        -35.49510609	         17.97482530	          2.63595159	         17.97799695	         50.06228679	          1.97836833	         -4.39765778	        -49.96765718	         26.47220852	          3.18808377	          1.07604365	         -9.41303198	         -1.37524941	          2.30430401	         -5.20331001	        -39.02835883	         19.08715124	         83.93680468	        -19.88415415	        -18.94956552	         -7.83649170	         81.96743556	
          0.15096038	        -15.76674535	          1.35038029	          1.81473956	          0.49228333	          0.82686114	          0.00171022	         17.82515593	          2.01905363	          3.53000963	        -34.77285438	         16.42172238	          3.20666259	         19.34645348	         50.84969251	          2.18589699	         -4.20035641	        -48.71072923	         26.38445376	          3.25815114	          0.99918620	         -9.40735471	         -1.63307160	          2.46265796	         -5.83787341	        -39.79754426	         19.04384119	         87.43911231	        -21.41786977	        -18.87765409	         -8.64021512	         85.27550549	
          0.15655150	        -15.79265835	          1.39627246	          1.80821422	          0.51121074	          0.82858316	          0.00168702	         16.28189127	          1.74708902	          3.15450325	        -34.11971517	         14.73094425	          3.80161174	         20.67444274	         51.56574349	          2.38134392	         -3.98356127	        -47.38643829	         26.30136343	          3.33972557	          0.92870786	         -9.39108841	         -1.88399563	          2.61302573	         -6.40133932	        -40.47492656	         19.02478739	         90.63093402	        -22.83285563	        -18.80718159	         -9.36922315	         88.29138800	
          0.16214263	        -15.81674866	          1.43397340	          1.80111287	          0.53019182	          0.83022995	          0.00165663	         14.81576050	          1.48552921	          2.79297021	        -33.57058869	         12.95196378	          4.42685907	         21.87123388	         52.20970126	          2.56111490	         -3.74859948	        -45.99224363	         26.22373414	          3.43014698	          0.86407757	         -9.36827232	         -2.12398174	          2.75379344	         -6.89619721	        -41.06024552	         19.02825453	         93.50876776	        -24.12227089	        -18.74305554	        -10.02696100	         91.00447891	
          0.16773375	        -15.83919652	          1.45922135	          1.79177046	          0.54919989	          0.83177708	          0.00162075	         13.45507010	          1.23847019	          2.44676570	        -33.16980297	         11.18667395	          5.10508617	         22.75018601	         52.77831404	          2.72023997	         -3.49485360	        -44.52210051	         26.15118500	          3.52674042	          0.80496884	         -9.34363800	         -2.34641647	          2.88435283	         -7.32398784	        -41.55430021	         19.05180541	         96.06964249	        -25.27980692	        -18.68794426	        -10.61697445	         93.40554381	
          0.17332488	        -15.86013961	          1.47068350	          1.77885704	          0.56822081	          0.83321253	          0.00158031	         12.21609643	          1.00740932	          2.11946584	        -32.93626442	          9.43689130	          5.82389192	         23.29021958	         53.26359025	          2.85640314	         -3.22216926	        -42.96438863	         26.08119145	          3.62720942	          0.75081476	         -9.32004096	         -2.54819060	          3.00339563	         -7.68856411	        -41.95469888	         19.09100570	         98.30708415	        -26.29979779	        -18.64378583	        -11.14171286	         95.48304114	
          0.17891600	        -15.87957512	          1.46811350	          1.76066656	          0.58724945	          0.83452813	          0.00153419	         11.10724922	          0.79097542	          1.81034117	        -32.87405258	          7.67385772	          6.56662802	         23.53033586	         53.65645543	          2.96824305	         -2.93127305	        -41.31310700	         26.01201451	          3.72907246	          0.70127410	         -9.29851592	         -2.72713852	          3.11031575	         -7.99612048	        -42.25915536	         19.14070110	        100.21478785	        -27.17776907	        -18.61150114	        -11.60280365	         97.22591277	
          0.18450713	        -15.89722706	          1.45284167	          1.73533200	          0.60628531	          0.83571267	          0.00147980	         10.13415209	          0.58737507	          1.51782861	        -32.98476816	          5.88695844	          7.30647018	         23.47866743	         53.95367433	          3.05635562	         -2.62259917	        -39.58471594	         25.94043676	          3.83038345	          0.65607972	         -9.27890564	         -2.88250911	          3.20475974	         -8.25411275	        -42.46671462	         19.19526682	        101.78896127	        -27.91107046	        -18.59190608	        -12.00158976	         98.62591232	
          0.19009825	        -15.91266245	          1.42682665	          1.70099923	          0.62532917	          0.83675252	          0.00141427	          9.30242425	          0.39665871	          1.24297657	        -33.27282423	          4.08836120	          8.00924281	         23.10792327	         54.15375228	          3.12197190	         -2.29770867	        -37.80481384	         25.86389214	          3.92871693	          0.61515369	         -9.26042037	         -3.01389806	          3.28589541	         -8.46881895	        -42.57780677	         19.25028676	        103.02776393	        -28.49861185	        -18.58548682	        -12.33974103	         99.67699809	
          0.19568938	        -15.92527746	          1.39167705	          1.65526353	          0.64438076	          0.83762593	          0.00133395	          8.61596704	          0.21749030	          0.98437626	        -33.74795830	          2.34537328	          8.66470536	         22.34089455	         54.25632218	          3.16635264	         -1.95704655	        -36.00211285	         25.77785202	          4.02225324	          0.57864978	         -9.24179456	         -3.12014964	          3.35345136	         -8.64541835	        -42.59610884	         19.30232801	        103.93321306	        -28.94118250	        -18.59220806	        -12.61947305	        100.37700659	
          0.20128050	        -15.93432705	          1.34725456	          1.59869675	          0.66343704	          0.83830439	          0.00124162	          8.08117523	          0.05075575	          0.73788770	        -34.42442666	          0.70740051	          9.27436628	         21.17912919	         54.26279953	          3.19168666	         -1.60271705	        -34.20813012	         25.67764232	          4.10897615	          0.54632006	         -9.22153313	         -3.20121098	          3.40684834	         -8.79052539	        -42.52466897	         19.34602881	        104.50869112	        -29.24010697	        -18.61447685	        -12.84305280	        100.73019502	
          0.20687163	        -15.93892562	          1.29251832	          1.53442837	          0.68249453	          0.83875678	          0.00114383	          7.70455844	         -0.10096953	          0.50470569	        -35.30741993	         -0.71270199	          9.85204164	         19.75276354	         54.17863148	          3.20184807	         -1.23659727	        -32.46055075	         25.55821225	          4.18600116	          0.51811988	         -9.19740548	         -3.25842605	          3.44560449	         -8.91103443	        -42.36605911	         19.37606747	        104.75735062	        -29.39631056	        -18.65644297	        -13.01228772	        100.74481083	
